<svg id="visual" viewBox="0 0 2500 800" width="2500" height="800" xmlns="http://www.w3.org/2000/svg" xmlns:xlink="http://www.w3.org/1999/xlink" version="1.1"><rect x="0" y="0" width="2500" height="800" fill="#131219"></rect><path d="M0 340L24.5 343.3C49 346.7 98 353.3 147 369.5C196 385.7 245 411.3 294 407.3C343 403.3 392 369.7 441 361.2C490 352.7 539 369.3 588 381.2C637 393 686 400 735 397.8C784 395.7 833 384.3 882 381C931 377.7 980 382.3 1029 384.3C1078 386.3 1127 385.7 1176.2 385.2C1225.3 384.7 1274.7 384.3 1323.8 394.5C1373 404.7 1422 425.3 1471 433.7C1520 442 1569 438 1618 433.2C1667 428.3 1716 422.7 1765 422.2C1814 421.7 1863 426.3 1912 417.2C1961 408 2010 385 2059 375C2108 365 2157 368 2206 369.5C2255 371 2304 371 2353 382.3C2402 393.7 2451 416.3 2475.5 427.7L2500 439L2500 801L2475.5 801C2451 801 2402 801 2353 801C2304 801 2255 801 2206 801C2157 801 2108 801 2059 801C2010 801 1961 801 1912 801C1863 801 1814 801 1765 801C1716 801 1667 801 1618 801C1569 801 1520 801 1471 801C1422 801 1373 801 1323.8 801C1274.7 801 1225.3 801 1176.2 801C1127 801 1078 801 1029 801C980 801 931 801 882 801C833 801 784 801 735 801C686 801 637 801 588 801C539 801 490 801 441 801C392 801 343 801 294 801C245 801 196 801 147 801C98 801 49 801 24.5 801L0 801Z" fill="#32204f"></path><path d="M0 495L24.5 493.5C49 492 98 489 147 492.7C196 496.3 245 506.7 294 496.7C343 486.7 392 456.3 441 449C490 441.7 539 457.3 588 467.7C637 478 686 483 735 481C784 479 833 470 882 470.3C931 470.7 980 480.3 1029 474C1078 467.7 1127 445.3 1176.2 447.7C1225.3 450 1274.7 477 1323.8 489.3C1373 501.7 1422 499.3 1471 500C1520 500.7 1569 504.3 1618 491.7C1667 479 1716 450 1765 443.5C1814 437 1863 453 1912 468.2C1961 483.3 2010 497.7 2059 488.7C2108 479.7 2157 447.3 2206 445.2C2255 443 2304 471 2353 476.8C2402 482.7 2451 466.3 2475.5 458.2L2500 450L2500 801L2475.5 801C2451 801 2402 801 2353 801C2304 801 2255 801 2206 801C2157 801 2108 801 2059 801C2010 801 1961 801 1912 801C1863 801 1814 801 1765 801C1716 801 1667 801 1618 801C1569 801 1520 801 1471 801C1422 801 1373 801 1323.8 801C1274.7 801 1225.3 801 1176.2 801C1127 801 1078 801 1029 801C980 801 931 801 882 801C833 801 784 801 735 801C686 801 637 801 588 801C539 801 490 801 441 801C392 801 343 801 294 801C245 801 196 801 147 801C98 801 49 801 24.5 801L0 801Z" fill="#281d42"></path><path d="M0 590L24.5 582.2C49 574.3 98 558.7 147 553.3C196 548 245 553 294 560.7C343 568.3 392 578.7 441 574C490 569.3 539 549.7 588 534.7C637 519.7 686 509.3 735 514.2C784 519 833 539 882 546.2C931 553.3 980 547.7 1029 550.5C1078 553.3 1127 564.7 1176.2 566.2C1225.3 567.7 1274.7 559.3 1323.8 560.8C1373 562.3 1422 573.7 1471 575.3C1520 577 1569 569 1618 561.7C1667 554.3 1716 547.7 1765 540.2C1814 532.7 1863 524.3 1912 526.7C1961 529 2010 542 2059 547.8C2108 553.7 2157 552.3 2206 554C2255 555.7 2304 560.3 2353 553.2C2402 546 2451 527 2475.5 517.5L2500 508L2500 801L2475.5 801C2451 801 2402 801 2353 801C2304 801 2255 801 2206 801C2157 801 2108 801 2059 801C2010 801 1961 801 1912 801C1863 801 1814 801 1765 801C1716 801 1667 801 1618 801C1569 801 1520 801 1471 801C1422 801 1373 801 1323.8 801C1274.7 801 1225.3 801 1176.2 801C1127 801 1078 801 1029 801C980 801 931 801 882 801C833 801 784 801 735 801C686 801 637 801 588 801C539 801 490 801 441 801C392 801 343 801 294 801C245 801 196 801 147 801C98 801 49 801 24.5 801L0 801Z" fill="#201a34"></path><path d="M0 658L24.5 654.2C49 650.3 98 642.7 147 633.2C196 623.7 245 612.3 294 616C343 619.7 392 638.3 441 647.3C490 656.3 539 655.7 588 652.2C637 648.7 686 642.3 735 634.7C784 627 833 618 882 618.5C931 619 980 629 1029 631.8C1078 634.7 1127 630.3 1176.2 621.5C1225.3 612.7 1274.7 599.3 1323.8 599C1373 598.7 1422 611.3 1471 613.8C1520 616.3 1569 608.7 1618 612.5C1667 616.3 1716 631.7 1765 638.2C1814 644.7 1863 642.3 1912 635.8C1961 629.3 2010 618.7 2059 610.2C2108 601.7 2157 595.3 2206 604.7C2255 614 2304 639 2353 647.5C2402 656 2451 648 2475.5 644L2500 640L2500 801L2475.5 801C2451 801 2402 801 2353 801C2304 801 2255 801 2206 801C2157 801 2108 801 2059 801C2010 801 1961 801 1912 801C1863 801 1814 801 1765 801C1716 801 1667 801 1618 801C1569 801 1520 801 1471 801C1422 801 1373 801 1323.8 801C1274.7 801 1225.3 801 1176.2 801C1127 801 1078 801 1029 801C980 801 931 801 882 801C833 801 784 801 735 801C686 801 637 801 588 801C539 801 490 801 441 801C392 801 343 801 294 801C245 801 196 801 147 801C98 801 49 801 24.5 801L0 801Z" fill="#191726"></path><path d="M0 727L24.5 723.7C49 720.3 98 713.7 147 708.3C196 703 245 699 294 695.8C343 692.7 392 690.3 441 688.3C490 686.3 539 684.7 588 693C637 701.3 686 719.7 735 720C784 720.3 833 702.7 882 694.3C931 686 980 687 1029 691C1078 695 1127 702 1176.2 702.7C1225.3 703.3 1274.7 697.7 1323.8 702.5C1373 707.3 1422 722.7 1471 721C1520 719.3 1569 700.7 1618 693.7C1667 686.7 1716 691.3 1765 697.3C1814 703.3 1863 710.7 1912 716.5C1961 722.3 2010 726.7 2059 721.5C2108 716.3 2157 701.7 2206 700C2255 698.3 2304 709.7 2353 717C2402 724.3 2451 727.7 2475.5 729.3L2500 731L2500 801L2475.5 801C2451 801 2402 801 2353 801C2304 801 2255 801 2206 801C2157 801 2108 801 2059 801C2010 801 1961 801 1912 801C1863 801 1814 801 1765 801C1716 801 1667 801 1618 801C1569 801 1520 801 1471 801C1422 801 1373 801 1323.8 801C1274.7 801 1225.3 801 1176.2 801C1127 801 1078 801 1029 801C980 801 931 801 882 801C833 801 784 801 735 801C686 801 637 801 588 801C539 801 490 801 441 801C392 801 343 801 294 801C245 801 196 801 147 801C98 801 49 801 24.5 801L0 801Z" fill="#131219"></path></svg>