<svg id="visual" viewBox="0 0 900 600" width="900" height="600" xmlns="http://www.w3.org/2000/svg" xmlns:xlink="http://www.w3.org/1999/xlink" version="1.1"><rect x="0" y="0" width="900" height="600" fill="#131219"></rect><path d="M0 225L21.5 233.7C43 242.3 86 259.7 128.8 271.7C171.7 283.7 214.3 290.3 257.2 285.5C300 280.7 343 264.3 385.8 254.5C428.7 244.7 471.3 241.3 514.2 243.5C557 245.7 600 253.3 642.8 263.8C685.7 274.3 728.3 287.7 771.2 284.7C814 281.7 857 262.3 878.5 252.7L900 243L900 601L878.5 601C857 601 814 601 771.2 601C728.3 601 685.7 601 642.8 601C600 601 557 601 514.2 601C471.3 601 428.7 601 385.8 601C343 601 300 601 257.2 601C214.3 601 171.7 601 128.8 601C86 601 43 601 21.5 601L0 601Z" fill="#32204f"></path><path d="M0 338L21.5 334.2C43 330.3 86 322.7 128.8 319C171.7 315.3 214.3 315.7 257.2 323.8C300 332 343 348 385.8 352.8C428.7 357.7 471.3 351.3 514.2 337.7C557 324 600 303 642.8 304.8C685.7 306.7 728.3 331.3 771.2 332C814 332.7 857 309.3 878.5 297.7L900 286L900 601L878.5 601C857 601 814 601 771.2 601C728.3 601 685.7 601 642.8 601C600 601 557 601 514.2 601C471.3 601 428.7 601 385.8 601C343 601 300 601 257.2 601C214.3 601 171.7 601 128.8 601C86 601 43 601 21.5 601L0 601Z" fill="#281d42"></path><path d="M0 417L21.5 409.2C43 401.3 86 385.7 128.8 374.7C171.7 363.7 214.3 357.3 257.2 367.8C300 378.3 343 405.7 385.8 408.7C428.7 411.7 471.3 390.3 514.2 380.2C557 370 600 371 642.8 379.7C685.7 388.3 728.3 404.7 771.2 413.3C814 422 857 423 878.5 423.5L900 424L900 601L878.5 601C857 601 814 601 771.2 601C728.3 601 685.7 601 642.8 601C600 601 557 601 514.2 601C471.3 601 428.7 601 385.8 601C343 601 300 601 257.2 601C214.3 601 171.7 601 128.8 601C86 601 43 601 21.5 601L0 601Z" fill="#201a34"></path><path d="M0 486L21.5 479.2C43 472.3 86 458.7 128.8 459.2C171.7 459.7 214.3 474.3 257.2 478.2C300 482 343 475 385.8 468.8C428.7 462.7 471.3 457.3 514.2 453.3C557 449.3 600 446.7 642.8 449.7C685.7 452.7 728.3 461.3 771.2 462.5C814 463.7 857 457.3 878.5 454.2L900 451L900 601L878.5 601C857 601 814 601 771.2 601C728.3 601 685.7 601 642.8 601C600 601 557 601 514.2 601C471.3 601 428.7 601 385.8 601C343 601 300 601 257.2 601C214.3 601 171.7 601 128.8 601C86 601 43 601 21.5 601L0 601Z" fill="#191726"></path><path d="M0 526L21.5 524.3C43 522.7 86 519.3 128.8 521.3C171.7 523.3 214.3 530.7 257.2 528.5C300 526.3 343 514.7 385.8 508.8C428.7 503 471.3 503 514.2 510C557 517 600 531 642.8 538.8C685.7 546.7 728.3 548.3 771.2 539.7C814 531 857 512 878.5 502.5L900 493L900 601L878.5 601C857 601 814 601 771.2 601C728.3 601 685.7 601 642.8 601C600 601 557 601 514.2 601C471.3 601 428.7 601 385.8 601C343 601 300 601 257.2 601C214.3 601 171.7 601 128.8 601C86 601 43 601 21.5 601L0 601Z" fill="#131219"></path></svg>