<?xml version="1.0" encoding="UTF-8"?><svg xmlns="http://www.w3.org/2000/svg" xmlns:xlink="http://www.w3.org/1999/xlink" viewBox="0 0 108.7 121.23"><defs><style>.f{fill:url(#e);}.g{fill:url(#d);}.h{fill:#fff;}</style><linearGradient id="d" x1="24.55" y1="68.65" x2="98.69" y2="48.66" gradientTransform="matrix(1, 0, 0, 1, 0, 0)" gradientUnits="userSpaceOnUse"><stop offset="0" stop-color="#9663a9"/><stop offset="1" stop-color="#632c8c"/></linearGradient><linearGradient id="e" x1="11.2" y1="82.72" x2="42.65" y2="64.6" xlink:href="#d"/></defs><g id="a"/><g id="b"><g id="c"><rect class="h" x="14.93" y="30.77" width="78.8" height="68.34"/><g><path class="g" d="M102.37,25.58L60.68,1.51c-3.48-2.01-9.18-2.01-12.66,0L6.33,25.58c-3.48,2.01-6.33,6.95-6.33,10.97v48.14c0,4.02,2.85,8.96,6.33,10.97l41.69,24.07c3.48,2.01,9.18,2.01,12.66,0l41.69-24.07c3.48-2.01,6.33-6.95,6.33-10.97V36.54c0-4.02-2.85-8.96-6.33-10.97Zm-14.43,18.14c-3.35,0-5.47,.67-6.69,3.42l-21.6,48.52c-.56,1.26-1.58,2.33-2.94,2.94-2.93,1.3-6.36-.01-7.66-2.94L27.45,47.14c-1.22-2.74-3.34-3.42-6.69-3.42h-5.33c0-5.8,.68-11.6,9.04-11.6h3.25c4.77,0,7.25,3.39,8.86,7l17.77,39.92,17.77-39.92c1.61-3.61,4.08-7,8.86-7h3.25c8.36,0,9.04,5.8,9.04,11.6h-5.33Z"/><path class="f" d="M56.71,98.6h0c-2.93,1.3-6.36-.01-7.66-2.94L27.45,47.14c-1.22-2.74-3.34-3.42-6.69-3.42h-5.33c0-3.62,.26-7.25,2.5-9.46h0L0,46.77v37.91c0,4.02,2.85,8.96,6.33,10.97l29.88,17.25,20.5-14.3h0Z"/></g></g></g></svg>